# xmcd
#
# Track frame offsets:
#	150
#	19469
#	32142
#	50803
#	70053
#	89376
#	110450
#	122676
#	139149
#	153794
#	180759
#
# Disc length: 2495 seconds
#
# Revision: 0
# Processed by: cddbd v1.5.2PL0 Copyright (c) Steve Scherf et al.
# Submitted via: dBpowerAMP V4.0
#
DISCID=8e09bd0b
DTITLE=WAINES - STU
DYEAR=2009
DGENRE=Garage Blues
TTITLE0=Flow River Flow
TTITLE1=Wooooo
TTITLE2=Let Me Be
TTITLE3=Have You Heard The News?
TTITLE4=Server
TTITLE5=Again
TTITLE6=Ready To Taxi
TTITLE7=I'm Northbound, Babe
TTITLE8=NY Excuse
TTITLE9=Red Cross Store
TTITLE10=Stu
EXTD=Second Album of a Great Garage Blues Band from Palermo!!
EXTT0=
EXTT1=
EXTT2=
EXTT3=
EXTT4=
EXTT5=
EXTT6=
EXTT7=
EXTT8=
EXTT9=
EXTT10=
PLAYORDER=
